<svg xmlns="http://www.w3.org/2000/svg" viewBox="0 0 595.28 685.58"><defs><style>.cls-1{fill:#ef3f5e;}.cls-2{fill:#010101;}.cls-3{fill:#060507;}</style></defs><g id="Layer_2" data-name="Layer 2"><g id="Layer_1-2" data-name="Layer 1"><polygon class="cls-1" points="595.28 512.85 299.19 685.58 1.55 515.52 0 172.73 296.09 0 593.73 170.06 595.28 512.85"/><path class="cls-2" d="M209.76,219.07c-17.87,2.72-51.54-1.81-61.81,17.64l-42.44,64.44A22.82,22.82,0,0,0,103.69,323c5.64,17.15,37.35,15,51,18.57,7.88-42,26.75-83.88,55.07-122.48Z"/><path class="cls-2" d="M289.76,477.17c3.54,13.81,1.36,45.47,18.49,51.21A22.55,22.55,0,0,0,330,526.55l64.18-42.61c19.31-10.2,15-44.28,17.56-62.06-38.43,28.43-80.15,47.38-122,55.29Z"/><path class="cls-2" d="M277.09,453.72c18.71-2.1,36.88-8,54-14.67L192.66,300c-5.31,17.51-23.58,54.75-8.21,69.7C194.11,376,264.08,458.53,277.09,453.72Z"/><path class="cls-2" d="M114.42,455.34c7.52,2.62,43.94-40.83,49.42-44.45,11.45-11.59-6-29.18-17.59-17.67L105.63,434C97.7,441.43,103.78,455.72,114.42,455.34Z"/><path class="cls-2" d="M201.07,430.6a12.4,12.4,0,0,0-17.59,0L105.38,509a12.53,12.53,0,0,0,0,17.67,12.4,12.4,0,0,0,17.59,0l78.1-78.42a12.53,12.53,0,0,0,0-17.67Z"/><path class="cls-2" d="M220.7,468l-40.62,40.79c-11.44,11.59,6,29.18,17.6,17.67l40.62-40.79A12.47,12.47,0,0,0,220.7,468Z"/><path class="cls-3" d="M206.93,287s-5.42,5.11-1.28,9.26c5.14,5.17,47.84,47.91,47.84,47.91l48.63-48.69s7.33-8.71,13.6-2.42L335.54,313c7.41,7.44-1.05,15-1.05,15L286,376.51l46.77,47c5.25,5.28,11.56-1.53,11.56-1.53l89.52-89.89,6.81-139.2L298,195.61Z"/><path class="cls-3" d="M279,162.94s-7.64,19.6,18.9,19l158.68-3.83-8.15,154C450,360.57,469,352.74,469,352.74L480.53,154Z"/><polygon class="cls-3" points="527.56 249.01 508.89 230.26 480.88 258.54 479.91 296.86 527.56 249.01"/></g></g></svg>